<svg width="64" height="64" viewBox="0 0 64 64" fill="none" xmlns="http://www.w3.org/2000/svg">
  <path d="M32 50C39.732 50 46 43.732 46 36C46 28.268 39.732 22 32 22C24.268 22 18 28.268 18 36C18 43.732 24.268 50 32 50Z" fill="#FBBF24"/>
  <path d="M18 24C22.4183 24 26 20.4183 26 16C26 11.5817 22.4183 8 18 8C13.5817 8 10 11.5817 10 16C10 20.4183 13.5817 24 18 24Z" fill="#FBBF24"/>
  <path d="M46 24C50.4183 24 54 20.4183 54 16C54 11.5817 50.4183 8 46 8C41.5817 8 38 11.5817 38 16C38 20.4183 41.5817 24 46 24Z" fill="#FBBF24"/>
  <path d="M56 40C59.3137 40 62 37.3137 62 34C62 30.6863 59.3137 28 56 28C52.6863 28 50 30.6863 50 34C50 37.3137 52.6863 40 56 40Z" fill="#FBBF24"/>
  <path d="M8 40C11.3137 40 14 37.3137 14 34C14 30.6863 11.3137 28 8 28C4.68629 28 2 30.6863 2 34C2 37.3137 4.68629 40 8 40Z" fill="#FBBF24"/>
</svg>